#!OML:ASF F:\VICON\USERDATA\INSTALL\rory3\rory3.ASF
:FULLY-SPECIFIED
:DEGREES
495
root 2.72127 9.47362 -5.79251 352.317 -45.5471 360.327
lowerback 19.6875 2.26445 -0.453344
upperback 9.00772 2.66881 2.97811
thorax -1.45637 1.12814 2.87268
lowerneck -23.8108 12.1663 -3.36528
upperneck 13.6989 17.9637 -2.12875
head 7.95202 8.09244 2.17192
rclavicle 1.22451e-013 -2.38542e-015
rhumerus -16.432 3.69728 -78.5931
rradius 93.8083
rwrist 31.4752
rhand -24.5998 14.8125
rfingers 7.12502
rthumb 1.89807 -15.1588
lclavicle 1.22451e-013 -2.38542e-015
lhumerus -4.27121 -17.0982 89.6246
lradius 74.8091
lwrist -25.3684
lhand -20.8489 13.1349
lfingers 7.12502
lthumb 5.52019 43.043
rfemur -91.0052 -23.5124 20.8296
rtibia 111.525
rfoot -9.77436 -1.69542
rtoes 2.56284
lfemur -90.7722 16.4963 -21.6078
ltibia 108.442
lfoot -5.71037 -20.7493
ltoes -3.38268
496
root 2.72051 9.46907 -5.793 352.196 -45.5339 360.558
lowerback 19.5748 2.27777 -0.652721
upperback 8.9755 2.65518 2.98501
thorax -1.44191 1.11765 2.99819
lowerneck -23.5508 12.0595 -3.56416
upperneck 13.5337 17.8512 -2.09485
head 7.83531 8.04898 2.16877
rclavicle 1.35174e-014 -1.98785e-014
rhumerus -16.47 3.79692 -78.54
rradius 93.799
rwrist 31.4048
rhand -24.6541 14.6425
rfingers 7.12502
rthumb 1.84566 -15.3292
lclavicle 1.35174e-014 -1.98785e-014
lhumerus -4.27111 -16.9096 89.673
lradius 74.7797
lwrist -25.6955
lhand -20.248 12.8758
lfingers 7.12502
lthumb 6.10039 42.768
rfemur -91.138 -23.5529 20.6782
rtibia 111.573
rfoot -9.72917 -1.61202
rtoes 3.03306
lfemur -90.813 16.4356 -21.7905
ltibia 108.44
lfoot -5.75041 -20.6564
ltoes -3.32642
497
root 2.71902 9.46186 -5.79229 352.173 -45.506 360.662
lowerback 19.3738 2.2565 -0.721288
upperback 9.01811 2.61382 2.95979
thorax -1.29317 1.09477 3.02446
lowerneck -23.5232 12.0228 -3.60521
upperneck 13.5095 17.806 -2.06873
head 7.81709 8.03061 2.17344
rclavicle 3.97569e-015 1.03368e-014
rhumerus -16.3131 3.79367 -78.5736
rradius 93.6598
rwrist 31.4226
rhand -24.7823 14.5745
rfingers 7.12502
rthumb 1.72183 -15.3983
lclavicle 3.97569e-015 1.03368e-014
lhumerus -4.1391 -16.8037 89.5654
lradius 74.7693
lwrist -25.9639
lhand -19.8381 12.7899
lfingers 7.12502
lthumb 6.49607 42.6702
rfemur -91.283 -23.6244 20.669
rtibia 111.615
rfoot -9.70768 -1.6308
rtoes 2.98763
lfemur -90.9308 16.3979 -21.8966
ltibia 108.466
lfoot -5.6988 -20.6452
ltoes -3.27314
498
root 2.71911 9.45627 -5.79292 352.181 -45.4901 360.724
lowerback 19.1915 2.24729 -0.788437
upperback 9.07049 2.58798 2.93534
thorax -1.14416 1.07912 3.04717
lowerneck -23.6132 12.0038 -3.63965
upperneck 13.565 17.7779 -1.96159
head 7.83624 8.02283 2.21536
rclavicle 5.4467e-014 -3.81667e-014
rhumerus -16.1869 3.74957 -78.6268
rradius 93.5885
rwrist 31.4281
rhand -24.9102 14.5319
rfingers 7.12502
rthumb 1.59829 -15.4418
lclavicle 5.4467e-014 -3.81667e-014
lhumerus -3.98548 -16.8533 89.4172
lradius 74.7646
lwrist -25.9681
lhand -19.7388 12.8085
lfingers 7.12502
lthumb 6.59199 42.6859
rfemur -91.4419 -23.7131 20.6995
rtibia 111.653
rfoot -9.66 -1.58395
rtoes 3.09451
lfemur -91.0202 16.3606 -21.9537
ltibia 108.466
lfoot -5.63186 -20.6238
ltoes -3.32677
499
root 2.71949 9.45263 -5.79508 352.197 -45.4678 360.762
lowerback 19.106 2.26564 -0.879026
upperback 9.04848 2.59974 2.95007
thorax -1.12931 1.08325 3.11354
lowerneck -23.5349 11.9514 -3.70343
upperneck 13.5476 17.708 -1.88892
head 7.80577 7.99785 2.23124
rclavicle -2.5842e-014 -1.59028e-015
rhumerus -16.2051 3.67968 -78.6617
rradius 93.5161
rwrist 31.4516
rhand -25.0802 14.5518
rfingers 7.12502
rthumb 1.43414 -15.4231
lclavicle -2.5842e-014 -1.59028e-015
lhumerus -3.98847 -16.9573 89.3907
lradius 74.7718
lwrist -25.867
lhand -19.8116 12.8739
lfingers 7.12502
lthumb 6.52168 42.7535
rfemur -91.5568 -23.7626 20.7433
rtibia 111.677
rfoot -9.60221 -1.55508
rtoes 3.08095
lfemur -91.0909 16.3171 -22.0117
ltibia 108.471
lfoot -5.6885 -20.5366
ltoes -3.49696
500
root 2.71996 9.44815 -5.79599 352.202 -45.4399 360.798
lowerback 18.9906 2.24789 -0.90122
upperback 9.05452 2.57265 2.9043
thorax -1.06124 1.07015 3.08575
lowerneck -23.4188 11.902 -3.68485
upperneck 13.4573 17.6189 -1.86739
head 7.75738 7.96661 2.21273
rclavicle 1.03766e-013 -4.37326e-014
rhumerus -16.0837 3.51808 -78.858
rradius 93.3404
rwrist 31.5487
rhand -25.1581 14.609
rfingers 7.12502
rthumb 1.35892 -15.3664
lclavicle 1.03766e-013 -4.37326e-014
lhumerus -3.93461 -16.9548 89.3119
lradius 74.7173
lwrist -25.8037
lhand -19.883 12.7324
lfingers 7.12502
lthumb 6.45281 42.6141
rfemur -91.6151 -23.7259 20.7276
rtibia 111.69
rfoot -9.56623 -1.64095
rtoes 2.6038
lfemur -91.1599 16.2827 -22.0764
ltibia 108.484
lfoot -5.72713 -20.496
ltoes -3.52139
501
root 2.72115 9.44449 -5.79634 352.283 -45.442 360.754
lowerback 18.7492 2.20732 -0.825846
upperback 9.13009 2.52779 2.84451
thorax -0.84859 1.04874 2.99547
lowerneck -23.4088 11.8426 -3.70468
upperneck 13.3581 17.5292 -1.83186
head 7.71823 7.93261 2.20955
rclavicle 4.77083e-014 -1.51076e-014
rhumerus -15.8561 3.38398 -79.0461
rradius 93.2226
rwrist 31.5814
rhand -25.0702 14.6905
rfingers 7.12502
rthumb 1.44381 -15.2844
lclavicle 4.77083e-014 -1.51076e-014
lhumerus -3.71182 -16.9193 89.1822
lradius 74.5852
lwrist -25.774
lhand -19.9154 12.5199
lfingers 7.12502
lthumb 6.42148 42.4026
rfemur -91.6816 -23.6371 20.6885
rtibia 111.729
rfoot -9.60106 -1.63796
rtoes 2.94244
lfemur -91.2699 16.2846 -22.0708
ltibia 108.499
lfoot -5.68893 -20.5527
ltoes -3.40821
502
root 2.72093 9.43974 -5.79641 352.293 -45.4743 360.804
lowerback 18.5521 2.22416 -0.820249
upperback 9.14758 2.55055 2.80397
thorax -0.728516 1.06095 2.94996
lowerneck -23.4134 11.7259 -3.87673
upperneck 13.4006 17.3966 -1.6682
head 7.70415 7.87755 2.26793
rclavicle -8.74653e-015 3.18055e-014
rhumerus -15.789 3.26427 -79.1395
rradius 93.1072
rwrist 31.4852
rhand -25.0779 14.7575
rfingers 7.12502
rthumb 1.43635 -15.2174
lclavicle -8.74653e-015 3.18055e-014
lhumerus -3.60611 -16.9979 89.1073
lradius 74.5416
lwrist -25.7191
lhand -19.8012 12.3041
lfingers 7.12502
lthumb 6.53178 42.1834
rfemur -91.7614 -23.5186 20.5796
rtibia 111.789
rfoot -9.6453 -1.6452
rtoes 3.29607
lfemur -91.3554 16.3123 -22.1228
ltibia 108.52
lfoot -5.56656 -20.5897
ltoes -3.01068
503
root 2.72077 9.43264 -5.79651 352.365 -45.4986 360.789
lowerback 18.4057 2.20664 -0.771782
upperback 9.12728 2.53679 2.75595
thorax -0.67067 1.05753 2.87736
lowerneck -23.335 11.6479 -3.95209
upperneck 13.4262 17.2937 -1.56794
head 7.68554 7.83677 2.29232
rclavicle 1.39149e-014 4.37326e-014
rhumerus -15.7301 3.27004 -79.306
rradius 92.9285
rwrist 31.4641
rhand -25.2354 14.6469
rfingers 7.12502
rthumb 1.28417 -15.329
lclavicle 1.39149e-014 4.37326e-014
lhumerus -3.54326 -17.0443 88.9449
lradius 74.5515
lwrist -25.5887
lhand -19.7219 12.218
lfingers 7.12502
lthumb 6.60824 42.0949
rfemur -91.8671 -23.4319 20.5663
rtibia 111.836
rfoot -9.5895 -1.64311
rtoes 3.87421
lfemur -91.5109 16.3372 -22.1464
ltibia 108.573
lfoot -5.53768 -20.5914
ltoes -3.02088
504
root 2.71941 9.42331 -5.79805 352.574 -45.5257 360.624
lowerback 18.2414 2.15691 -0.618372
upperback 9.10553 2.49693 2.69553
thorax -0.599016 1.04447 2.73753
lowerneck -23.2033 11.6197 -3.86686
upperneck 13.372 17.217 -1.55664
head 7.65351 7.81147 2.26478
rclavicle -2.74323e-014 -2.94201e-014
rhumerus -15.6419 3.30051 -79.5416
rradius 92.784
rwrist 31.5307
rhand -25.3669 14.4546
rfingers 7.12502
rthumb 1.15716 -15.522
lclavicle -2.74323e-014 -2.94201e-014
lhumerus -3.43401 -17.11 88.6795
lradius 74.5888
lwrist -25.4047
lhand -19.7814 12.2994
lfingers 7.12502
lthumb 6.55085 42.178
rfemur -92.0428 -23.3531 20.7109
rtibia 111.893
rfoot -9.54305 -1.65337
rtoes 4.53995
lfemur -91.7563 16.3933 -22.0803
ltibia 108.643
lfoot -5.58289 -20.6158
ltoes -3.38378
505
root 2.71854 9.41606 -5.79936 352.711 -45.566 360.535
lowerback 18.082 2.13753 -0.511522
upperback 9.08154 2.48919 2.62851
thorax -0.53555 1.04644 2.61101
lowerneck -23.0691 11.5801 -3.76302
upperneck 13.3848 17.125 -1.54669
head 7.6456 7.77605 2.23587
rclavicle -5.4467e-014 2.46493e-014
rhumerus -15.6082 3.26936 -79.6968
rradius 92.6995
rwrist 31.5932
rhand -25.2925 14.3363
rfingers 7.12502
rthumb 1.22905 -15.6399
lclavicle -5.4467e-014 2.46493e-014
lhumerus -3.37968 -17.1524 88.5471
lradius 74.5615
lwrist -25.2641
lhand -19.831 12.4442
lfingers 7.12502
lthumb 6.50297 42.3244
rfemur -92.1859 -23.2697 20.8016
rtibia 111.937
rfoot -9.52736 -1.68174
rtoes 4.5791
lfemur -91.919 16.4517 -22.064
ltibia 108.701
lfoot -5.70093 -20.609
ltoes -3.89225
506
root 2.7175 9.41145 -5.79987 352.771 -45.6078 360.524
lowerback 17.9344 2.09743 -0.51022
upperback 9.05596 2.43822 2.58215
thorax -0.482679 1.02304 2.57374
lowerneck -23.0299 11.5588 -3.7424
upperneck 13.4954 17.0868 -1.49572
head 7.67382 7.75961 2.24732
rclavicle -4.03533e-014 2.38542e-014
rhumerus -15.5515 3.39605 -79.8292
rradius 92.6069
rwrist 31.5551
rhand -25.3515 14.201
rfingers 7.12502
rthumb 1.17209 -15.7756
lclavicle -4.03533e-014 2.38542e-014
lhumerus -3.40743 -17.0085 88.4587
lradius 74.5314
lwrist -25.1706
lhand -19.7206 12.7223
lfingers 7.12502
lthumb 6.6095 42.5991
rfemur -92.2686 -23.1457 20.8009
rtibia 111.97
rfoot -9.54514 -1.77877
rtoes 4.51623
lfemur -91.9998 16.4971 -22.0679
ltibia 108.739
lfoot -5.72221 -20.6363
ltoes -4.11907
507
root 2.71592 9.40673 -5.79829 353.046 -45.6709 360.242
lowerback 17.7071 2.04976 -0.308059
upperback 9.07277 2.40638 2.60671
thorax -0.339183 1.0124 2.49697
lowerneck -23.0187 11.5104 -3.7858
upperneck 13.505 17.0354 -1.49736
head 7.67289 7.73244 2.2462
rclavicle -6.04305e-014 3.57812e-014
rhumerus -15.4028 3.50387 -79.919
rradius 92.473
rwrist 31.452
rhand -25.6552 14.114
rfingers 7.12502
rthumb 0.878749 -15.864
lclavicle -6.04305e-014 3.57812e-014
lhumerus -3.35966 -16.9495 88.3262
lradius 74.5658
lwrist -24.9255
lhand -19.6364 12.9937
lfingers 7.12502
lthumb 6.69084 42.868
rfemur -92.3404 -22.9545 20.9988
rtibia 111.992
rfoot -9.62482 -1.94276
rtoes 4.27123
lfemur -92.1737 16.6021 -21.8892
ltibia 108.8
lfoot -5.67934 -20.7215
ltoes -4.26978
508
root 2.71541 9.40188 -5.79975 353.131 -45.6578 360.186
lowerback 17.5513 2.00745 -0.250455
upperback 9.0925 2.35832 2.57825
thorax -0.232247 0.990596 2.44704
lowerneck -23.0389 11.4714 -3.88487
upperneck 13.5333 16.9984 -1.40608
head 7.66898 7.71837 2.28516
rclavicle -2.62396e-014 -4.77083e-015
rhumerus -15.2229 3.57791 -80.0219
rradius 92.2695
rwrist 31.3496
rhand -25.7755 14.1358
rfingers 7.12502
rthumb 0.762562 -15.8426
lclavicle -2.62396e-014 -4.77083e-015
lhumerus -3.29167 -16.9935 88.2054
lradius 74.6429
lwrist -24.4072
lhand -19.8921 13.3117
lfingers 7.12502
lthumb 6.44403 43.1937
rfemur -92.4109 -22.8653 21.0061
rtibia 112.026
rfoot -9.65632 -2.04021
rtoes 4.1356
lfemur -92.2944 16.5979 -21.8943
ltibia 108.836
lfoot -5.74929 -20.6795
ltoes -4.49006
509
root 2.71577 9.39673 -5.80129 352.986 -45.6197 360.4
lowerback 17.4519 1.96221 -0.364186
upperback 9.10928 2.28012 2.47456
thorax -0.159791 0.950187 2.41832
lowerneck -23.0479 11.4594 -4.03862
upperneck 13.5452 16.9929 -1.21432
head 7.64235 7.72941 2.36399
rclavicle 5.04913e-014 -2.06736e-014
rhumerus -15.0294 3.70533 -80.1862
rradius 92.0235
rwrist 31.2941
rhand -25.6352 14.2147
rfingers 7.12502
rthumb 0.898122 -15.7631
lclavicle 5.04913e-014 -2.06736e-014
lhumerus -3.25613 -17.0546 88.0492
lradius 74.7239
lwrist -23.7962
lhand -20.2794 13.8046
lfingers 7.12502
lthumb 6.07005 43.6977
rfemur -92.4656 -22.826 20.7651
rtibia 112.08
rfoot -9.63087 -2.04753
rtoes 4.37053
lfemur -92.3095 16.5341 -22.0783
ltibia 108.853
lfoot -5.83889 -20.6059
ltoes -4.61262
